<svg xmlns="http://www.w3.org/2000/svg" xmlns:xlink="http://www.w3.org/1999/xlink" width="500" zoomAndPan="magnify" viewBox="0 0 375 374.999991" height="500" preserveAspectRatio="xMidYMid meet" version="1.0"><defs><g/><clipPath id="7b1bc336c1"><path d="M 104.882812 57 L 266.132812 57 L 266.132812 238.40625 L 104.882812 238.40625 Z M 104.882812 57 " clip-rule="nonzero"/></clipPath></defs><rect x="-37.5" width="450" fill="#ffffff" y="-37.499999" height="449.999989" fill-opacity="1"/><rect x="-37.5" width="450" fill="#ffffff" y="-37.499999" height="449.999989" fill-opacity="1"/><rect x="-37.5" width="450" fill="#ffffff" y="-37.499999" height="449.999989" fill-opacity="1"/><g clip-path="url(#7b1bc336c1)"><path fill="#edead6" d="M 168.058594 69.054688 C 168.070312 69.050781 168.089844 69.050781 168.097656 69.042969 L 168.097656 57.132812 L 172.070312 57.132812 L 172.070312 68.273438 C 175.804688 67.644531 179.628906 67.269531 183.515625 67.175781 L 183.515625 57.132812 L 187.488281 57.132812 L 187.488281 67.175781 C 191.378906 67.269531 195.199219 67.644531 198.929688 68.273438 L 198.929688 57.132812 L 202.902344 57.132812 L 202.902344 94.273438 L 198.929688 94.273438 L 198.929688 72.292969 C 195.203125 71.628906 191.378906 71.238281 187.488281 71.140625 L 187.488281 78.734375 L 183.515625 78.734375 L 183.515625 71.140625 C 179.621094 71.242188 175.796875 71.632812 172.070312 72.292969 L 172.070312 94.265625 L 168.097656 94.265625 L 168.097656 73.109375 C 168.089844 73.113281 168.070312 73.113281 168.058594 73.117188 Z M 161.175781 220.253906 C 130.800781 210.078125 108.851562 181.382812 108.851562 147.667969 C 108.851562 113.945312 130.800781 85.25 161.175781 75.074219 L 161.175781 70.902344 C 128.574219 81.234375 104.882812 111.734375 104.882812 147.667969 C 104.882812 183.597656 128.574219 214.101562 161.175781 224.429688 Z M 202.902344 222.21875 L 202.902344 201.054688 L 198.929688 201.054688 L 198.929688 223.03125 C 195.203125 223.691406 191.378906 224.085938 187.488281 224.179688 L 187.488281 216.585938 L 183.515625 216.585938 L 183.515625 224.179688 C 179.621094 224.078125 175.796875 223.6875 172.070312 223.03125 L 172.070312 201.054688 L 168.097656 201.054688 L 168.097656 222.21875 C 168.089844 222.214844 168.070312 222.214844 168.058594 222.207031 L 168.058594 226.273438 C 168.070312 226.277344 168.089844 226.277344 168.097656 226.28125 L 168.097656 238.195312 L 172.070312 238.195312 L 172.070312 227.054688 C 175.804688 227.683594 179.628906 228.054688 183.515625 228.152344 L 183.515625 238.195312 L 187.488281 238.195312 L 187.488281 228.152344 C 191.375 228.054688 195.199219 227.683594 198.929688 227.054688 L 198.929688 238.195312 L 202.902344 238.195312 Z M 209.789062 70.890625 L 209.789062 75.0625 C 240.183594 85.226562 262.148438 113.933594 262.148438 147.667969 C 262.148438 181.398438 240.183594 210.105469 209.789062 220.269531 L 209.789062 224.441406 C 242.410156 214.128906 266.121094 183.613281 266.121094 147.667969 C 266.121094 111.71875 242.410156 81.203125 209.789062 70.890625 Z M 209.789062 70.890625 " fill-opacity="1" fill-rule="nonzero"/></g><g fill="#edead6" fill-opacity="1"><g transform="translate(61.811453, 294.142387)"><g><path d="M 25.296875 -26.453125 L 13.21875 1.21875 L 1.15625 -26.453125 L 7.40625 -26.453125 L 13.4375 -11.53125 L 19.125 -26.453125 Z M 25.296875 -26.453125 "/></g></g></g><g fill="#edead6" fill-opacity="1"><g transform="translate(117.005714, 294.142387)"><g><path d="M 21.453125 -26.453125 L 21.453125 -21.421875 L 8.625 -21.421875 L 8.625 -15.78125 L 19.984375 -15.78125 L 19.984375 -10.75 L 8.625 -10.75 L 8.625 -5.03125 L 21.953125 -5.03125 L 21.953125 0 L 3.421875 0 L 3.421875 -26.453125 Z M 21.453125 -26.453125 "/></g></g></g><g fill="#edead6" fill-opacity="1"><g transform="translate(169.68462, 294.142387)"><g><path d="M 27.234375 -26.453125 L 27.234375 1.078125 L 27.09375 1.078125 L 8.59375 -15.640625 L 8.703125 0 L 3.421875 0 L 3.421875 -27.5 L 3.625 -27.5 L 22.109375 -10.53125 L 22 -26.453125 Z M 27.234375 -26.453125 "/></g></g></g><g fill="#edead6" fill-opacity="1"><g transform="translate(229.083126, 294.142387)"><g><path d="M 8.09375 -9.78125 C 8.09375 -8.9375 8.34375 -8.128906 8.84375 -7.359375 C 9.34375 -6.597656 10.007812 -5.976562 10.84375 -5.5 C 11.6875 -5.019531 12.585938 -4.78125 13.546875 -4.78125 C 14.578125 -4.78125 15.523438 -5.019531 16.390625 -5.5 C 17.253906 -5.976562 17.929688 -6.597656 18.421875 -7.359375 C 18.910156 -8.128906 19.15625 -8.9375 19.15625 -9.78125 L 19.15625 -26.453125 L 24.296875 -26.453125 L 24.296875 -9.671875 C 24.296875 -7.773438 23.816406 -6.066406 22.859375 -4.546875 C 21.898438 -3.023438 20.597656 -1.835938 18.953125 -0.984375 C 17.316406 -0.140625 15.515625 0.28125 13.546875 0.28125 C 11.585938 0.28125 9.789062 -0.140625 8.15625 -0.984375 C 6.53125 -1.835938 5.242188 -3.023438 4.296875 -4.546875 C 3.347656 -6.066406 2.875 -7.773438 2.875 -9.671875 L 2.875 -26.453125 L 8.09375 -26.453125 Z M 8.09375 -9.78125 "/></g></g></g><g fill="#edead6" fill-opacity="1"><g transform="translate(284.996051, 294.142387)"><g><path d="M 21.453125 -26.453125 L 21.453125 -21.421875 L 8.625 -21.421875 L 8.625 -15.78125 L 19.984375 -15.78125 L 19.984375 -10.75 L 8.625 -10.75 L 8.625 -5.03125 L 21.953125 -5.03125 L 21.953125 0 L 3.421875 0 L 3.421875 -26.453125 Z M 21.453125 -26.453125 "/></g></g></g><g fill="#edead6" fill-opacity="1"><g transform="translate(65.041498, 314.776827)"><g><path d="M 6.578125 0.296875 L 4.9375 -3.8125 L 3.109375 0.328125 L 0.34375 -6.859375 L 1.640625 -6.859375 L 3.25 -2.25 L 4.40625 -5.203125 L 3.734375 -6.859375 L 4.828125 -6.859375 L 6.59375 -2.390625 L 8.078125 -6.859375 L 9.265625 -6.859375 Z M 6.578125 0.296875 "/></g></g></g><g fill="#edead6" fill-opacity="1"><g transform="translate(79.203989, 314.776827)"><g><path d="M 6.5625 0 L 5.453125 0 L 5.453125 -2.9375 L 2.0625 -2.9375 L 2.0625 0 L 0.953125 0 L 0.953125 -6.90625 L 2.0625 -6.90625 L 2.0625 -4 L 5.453125 -4 L 5.453125 -6.90625 L 6.5625 -6.90625 Z M 6.5625 0 "/></g></g></g><g fill="#edead6" fill-opacity="1"><g transform="translate(91.262012, 314.776827)"><g><path d="M 5.53125 -6.90625 L 5.53125 -5.84375 L 2.0625 -5.84375 L 2.0625 -4 L 5.15625 -4 L 5.15625 -2.9375 L 2.0625 -2.9375 L 2.0625 -1.0625 L 5.65625 -1.0625 L 5.65625 0 L 0.953125 0 L 0.953125 -6.90625 Z M 5.53125 -6.90625 "/></g></g></g><g fill="#edead6" fill-opacity="1"><g transform="translate(102.049762, 314.776827)"><g><path d="M 4.71875 0 L 3.171875 -2.40625 L 2.0625 -2.40625 L 2.0625 0 L 0.953125 0 L 0.953125 -6.90625 L 2.890625 -6.90625 C 3.660156 -6.90625 4.273438 -6.707031 4.734375 -6.3125 C 5.203125 -5.925781 5.4375 -5.382812 5.4375 -4.6875 C 5.4375 -4.257812 5.347656 -3.863281 5.171875 -3.5 C 4.992188 -3.132812 4.710938 -2.859375 4.328125 -2.671875 L 6 0 Z M 2.0625 -3.46875 L 3.046875 -3.46875 C 3.484375 -3.46875 3.800781 -3.585938 4 -3.828125 C 4.207031 -4.066406 4.3125 -4.335938 4.3125 -4.640625 C 4.3125 -4.816406 4.269531 -4.992188 4.1875 -5.171875 C 4.113281 -5.359375 3.984375 -5.515625 3.796875 -5.640625 C 3.617188 -5.773438 3.378906 -5.84375 3.078125 -5.84375 L 2.0625 -5.84375 Z M 2.0625 -3.46875 "/></g></g></g><g fill="#edead6" fill-opacity="1"><g transform="translate(112.951267, 314.776827)"><g><path d="M 5.53125 -6.90625 L 5.53125 -5.84375 L 2.0625 -5.84375 L 2.0625 -4 L 5.15625 -4 L 5.15625 -2.9375 L 2.0625 -2.9375 L 2.0625 -1.0625 L 5.65625 -1.0625 L 5.65625 0 L 0.953125 0 L 0.953125 -6.90625 Z M 5.53125 -6.90625 "/></g></g></g><g fill="#edead6" fill-opacity="1"><g transform="translate(123.739021, 314.776827)"><g/></g></g><g fill="#edead6" fill-opacity="1"><g transform="translate(131.322669, 314.776827)"><g><path d="M 7.921875 -7.15625 L 7.921875 0 L 6.8125 0 L 6.8125 -4 L 4.40625 -0.5625 L 4.375 -0.5625 L 2.015625 -3.828125 L 2.015625 0 L 0.953125 0 L 0.953125 -7.15625 L 4.40625 -2.28125 L 7.90625 -7.15625 Z M 7.921875 -7.15625 "/></g></g></g><g fill="#edead6" fill-opacity="1"><g transform="translate(144.736268, 314.776827)"><g><path d="M 1.9375 -2.484375 C 1.9375 -2.222656 2.003906 -1.976562 2.140625 -1.75 C 2.285156 -1.519531 2.476562 -1.335938 2.71875 -1.203125 C 2.957031 -1.066406 3.222656 -1 3.515625 -1 C 3.804688 -1 4.070312 -1.0625 4.3125 -1.1875 C 4.5625 -1.320312 4.753906 -1.503906 4.890625 -1.734375 C 5.035156 -1.960938 5.109375 -2.210938 5.109375 -2.484375 L 5.109375 -6.90625 L 6.1875 -6.90625 L 6.1875 -2.453125 C 6.1875 -1.960938 6.066406 -1.523438 5.828125 -1.140625 C 5.597656 -0.753906 5.273438 -0.453125 4.859375 -0.234375 C 4.453125 -0.0234375 4.003906 0.078125 3.515625 0.078125 C 3.015625 0.078125 2.5625 -0.0234375 2.15625 -0.234375 C 1.75 -0.453125 1.425781 -0.753906 1.1875 -1.140625 C 0.957031 -1.523438 0.84375 -1.960938 0.84375 -2.453125 L 0.84375 -6.90625 L 1.9375 -6.90625 Z M 1.9375 -2.484375 "/></g></g></g><g fill="#edead6" fill-opacity="1"><g transform="translate(156.310825, 314.776827)"><g><path d="M 4.578125 -5.5 C 3.984375 -5.8125 3.453125 -5.96875 2.984375 -5.96875 C 2.640625 -5.96875 2.367188 -5.890625 2.171875 -5.734375 C 1.972656 -5.585938 1.875 -5.378906 1.875 -5.109375 C 1.875 -4.847656 2 -4.628906 2.25 -4.453125 C 2.5 -4.285156 2.847656 -4.117188 3.296875 -3.953125 C 3.640625 -3.828125 3.929688 -3.6875 4.171875 -3.53125 C 4.421875 -3.375 4.625 -3.160156 4.78125 -2.890625 C 4.9375 -2.628906 5.015625 -2.296875 5.015625 -1.890625 C 5.015625 -1.523438 4.921875 -1.191406 4.734375 -0.890625 C 4.554688 -0.597656 4.289062 -0.363281 3.9375 -0.1875 C 3.59375 -0.0078125 3.1875 0.078125 2.71875 0.078125 C 2.300781 0.078125 1.890625 0.015625 1.484375 -0.109375 C 1.078125 -0.242188 0.710938 -0.425781 0.390625 -0.65625 L 0.890625 -1.515625 C 1.128906 -1.335938 1.40625 -1.191406 1.71875 -1.078125 C 2.039062 -0.960938 2.335938 -0.90625 2.609375 -0.90625 C 2.941406 -0.90625 3.234375 -0.984375 3.484375 -1.140625 C 3.742188 -1.304688 3.875 -1.554688 3.875 -1.890625 C 3.875 -2.148438 3.765625 -2.367188 3.546875 -2.546875 C 3.335938 -2.722656 3.046875 -2.882812 2.671875 -3.03125 C 2.273438 -3.175781 1.945312 -3.320312 1.6875 -3.46875 C 1.425781 -3.613281 1.203125 -3.8125 1.015625 -4.0625 C 0.828125 -4.320312 0.734375 -4.644531 0.734375 -5.03125 C 0.734375 -5.59375 0.925781 -6.046875 1.3125 -6.390625 C 1.695312 -6.734375 2.203125 -6.914062 2.828125 -6.9375 C 3.285156 -6.9375 3.6875 -6.882812 4.03125 -6.78125 C 4.375 -6.675781 4.691406 -6.53125 4.984375 -6.34375 Z M 4.578125 -5.5 "/></g></g></g><g fill="#edead6" fill-opacity="1"><g transform="translate(166.378131, 314.776827)"><g><path d="M 2.0625 -6.90625 L 2.0625 0 L 0.953125 0 L 0.953125 -6.90625 Z M 2.0625 -6.90625 "/></g></g></g><g fill="#edead6" fill-opacity="1"><g transform="translate(173.933338, 314.776827)"><g><path d="M 6.0625 -0.546875 C 5.863281 -0.398438 5.582031 -0.257812 5.21875 -0.125 C 4.863281 0.0078125 4.476562 0.078125 4.0625 0.078125 C 3.34375 0.078125 2.71875 -0.078125 2.1875 -0.390625 C 1.65625 -0.703125 1.242188 -1.125 0.953125 -1.65625 C 0.660156 -2.1875 0.515625 -2.765625 0.515625 -3.390625 C 0.515625 -4.078125 0.660156 -4.691406 0.953125 -5.234375 C 1.242188 -5.785156 1.644531 -6.210938 2.15625 -6.515625 C 2.675781 -6.828125 3.265625 -6.984375 3.921875 -6.984375 C 4.328125 -6.984375 4.703125 -6.925781 5.046875 -6.8125 C 5.390625 -6.707031 5.691406 -6.570312 5.953125 -6.40625 L 5.515625 -5.375 C 5.003906 -5.738281 4.484375 -5.921875 3.953125 -5.921875 C 3.546875 -5.921875 3.164062 -5.8125 2.8125 -5.59375 C 2.46875 -5.375 2.191406 -5.078125 1.984375 -4.703125 C 1.773438 -4.328125 1.671875 -3.914062 1.671875 -3.46875 C 1.671875 -2.988281 1.765625 -2.5625 1.953125 -2.1875 C 2.148438 -1.8125 2.425781 -1.515625 2.78125 -1.296875 C 3.132812 -1.085938 3.546875 -0.984375 4.015625 -0.984375 C 4.359375 -0.984375 4.660156 -1.035156 4.921875 -1.140625 C 5.191406 -1.242188 5.421875 -1.375 5.609375 -1.53125 Z M 6.0625 -0.546875 "/></g></g></g><g fill="#edead6" fill-opacity="1"><g transform="translate(185.071828, 314.776827)"><g/></g></g><g fill="#edead6" fill-opacity="1"><g transform="translate(192.65547, 314.776827)"><g><path d="M 2.0625 -6.90625 L 2.0625 0 L 0.953125 0 L 0.953125 -6.90625 Z M 2.0625 -6.90625 "/></g></g></g><g fill="#edead6" fill-opacity="1"><g transform="translate(200.210677, 314.776827)"><g><path d="M 4.578125 -5.5 C 3.984375 -5.8125 3.453125 -5.96875 2.984375 -5.96875 C 2.640625 -5.96875 2.367188 -5.890625 2.171875 -5.734375 C 1.972656 -5.585938 1.875 -5.378906 1.875 -5.109375 C 1.875 -4.847656 2 -4.628906 2.25 -4.453125 C 2.5 -4.285156 2.847656 -4.117188 3.296875 -3.953125 C 3.640625 -3.828125 3.929688 -3.6875 4.171875 -3.53125 C 4.421875 -3.375 4.625 -3.160156 4.78125 -2.890625 C 4.9375 -2.628906 5.015625 -2.296875 5.015625 -1.890625 C 5.015625 -1.523438 4.921875 -1.191406 4.734375 -0.890625 C 4.554688 -0.597656 4.289062 -0.363281 3.9375 -0.1875 C 3.59375 -0.0078125 3.1875 0.078125 2.71875 0.078125 C 2.300781 0.078125 1.890625 0.015625 1.484375 -0.109375 C 1.078125 -0.242188 0.710938 -0.425781 0.390625 -0.65625 L 0.890625 -1.515625 C 1.128906 -1.335938 1.40625 -1.191406 1.71875 -1.078125 C 2.039062 -0.960938 2.335938 -0.90625 2.609375 -0.90625 C 2.941406 -0.90625 3.234375 -0.984375 3.484375 -1.140625 C 3.742188 -1.304688 3.875 -1.554688 3.875 -1.890625 C 3.875 -2.148438 3.765625 -2.367188 3.546875 -2.546875 C 3.335938 -2.722656 3.046875 -2.882812 2.671875 -3.03125 C 2.273438 -3.175781 1.945312 -3.320312 1.6875 -3.46875 C 1.425781 -3.613281 1.203125 -3.8125 1.015625 -4.0625 C 0.828125 -4.320312 0.734375 -4.644531 0.734375 -5.03125 C 0.734375 -5.59375 0.925781 -6.046875 1.3125 -6.390625 C 1.695312 -6.734375 2.203125 -6.914062 2.828125 -6.9375 C 3.285156 -6.9375 3.6875 -6.882812 4.03125 -6.78125 C 4.375 -6.675781 4.691406 -6.53125 4.984375 -6.34375 Z M 4.578125 -5.5 "/></g></g></g><g fill="#edead6" fill-opacity="1"><g transform="translate(210.277978, 314.776827)"><g/></g></g><g fill="#edead6" fill-opacity="1"><g transform="translate(217.86162, 314.776827)"><g><path d="M 5.53125 -6.90625 L 5.53125 -5.84375 L 2.0625 -5.84375 L 2.0625 -4 L 5.15625 -4 L 5.15625 -2.9375 L 2.0625 -2.9375 L 2.0625 -1.0625 L 5.65625 -1.0625 L 5.65625 0 L 0.953125 0 L 0.953125 -6.90625 Z M 5.53125 -6.90625 "/></g></g></g><g fill="#edead6" fill-opacity="1"><g transform="translate(228.649367, 314.776827)"><g><path d="M 4.859375 0 L 3.171875 -2.609375 L 1.65625 0 L 0.28125 0 L 2.546875 -3.5625 L 0.375 -6.90625 L 1.78125 -6.90625 L 3.40625 -4.40625 L 4.859375 -6.90625 L 6.203125 -6.90625 L 4.015625 -3.484375 L 6.28125 0 Z M 4.859375 0 "/></g></g></g><g fill="#edead6" fill-opacity="1"><g transform="translate(239.778383, 314.776827)"><g><path d="M 2.90625 -6.90625 C 3.6875 -6.90625 4.296875 -6.707031 4.734375 -6.3125 C 5.179688 -5.925781 5.40625 -5.382812 5.40625 -4.6875 C 5.40625 -4.289062 5.328125 -3.914062 5.171875 -3.5625 C 5.015625 -3.21875 4.757812 -2.9375 4.40625 -2.71875 C 4.050781 -2.507812 3.597656 -2.40625 3.046875 -2.40625 L 2.0625 -2.40625 L 2.0625 0 L 0.953125 0 L 0.953125 -6.90625 Z M 3.046875 -3.46875 C 3.359375 -3.46875 3.601562 -3.53125 3.78125 -3.65625 C 3.96875 -3.78125 4.101562 -3.9375 4.1875 -4.125 C 4.269531 -4.3125 4.3125 -4.492188 4.3125 -4.671875 C 4.3125 -4.960938 4.21875 -5.226562 4.03125 -5.46875 C 3.84375 -5.71875 3.523438 -5.84375 3.078125 -5.84375 L 2.0625 -5.84375 L 2.0625 -3.46875 Z M 3.046875 -3.46875 "/></g></g></g><g fill="#edead6" fill-opacity="1"><g transform="translate(250.120584, 314.776827)"><g><path d="M 4.71875 0 L 3.171875 -2.40625 L 2.0625 -2.40625 L 2.0625 0 L 0.953125 0 L 0.953125 -6.90625 L 2.890625 -6.90625 C 3.660156 -6.90625 4.273438 -6.707031 4.734375 -6.3125 C 5.203125 -5.925781 5.4375 -5.382812 5.4375 -4.6875 C 5.4375 -4.257812 5.347656 -3.863281 5.171875 -3.5 C 4.992188 -3.132812 4.710938 -2.859375 4.328125 -2.671875 L 6 0 Z M 2.0625 -3.46875 L 3.046875 -3.46875 C 3.484375 -3.46875 3.800781 -3.585938 4 -3.828125 C 4.207031 -4.066406 4.3125 -4.335938 4.3125 -4.640625 C 4.3125 -4.816406 4.269531 -4.992188 4.1875 -5.171875 C 4.113281 -5.359375 3.984375 -5.515625 3.796875 -5.640625 C 3.617188 -5.773438 3.378906 -5.84375 3.078125 -5.84375 L 2.0625 -5.84375 Z M 2.0625 -3.46875 "/></g></g></g><g fill="#edead6" fill-opacity="1"><g transform="translate(261.022083, 314.776827)"><g><path d="M 5.53125 -6.90625 L 5.53125 -5.84375 L 2.0625 -5.84375 L 2.0625 -4 L 5.15625 -4 L 5.15625 -2.9375 L 2.0625 -2.9375 L 2.0625 -1.0625 L 5.65625 -1.0625 L 5.65625 0 L 0.953125 0 L 0.953125 -6.90625 Z M 5.53125 -6.90625 "/></g></g></g><g fill="#edead6" fill-opacity="1"><g transform="translate(271.809843, 314.776827)"><g><path d="M 4.578125 -5.5 C 3.984375 -5.8125 3.453125 -5.96875 2.984375 -5.96875 C 2.640625 -5.96875 2.367188 -5.890625 2.171875 -5.734375 C 1.972656 -5.585938 1.875 -5.378906 1.875 -5.109375 C 1.875 -4.847656 2 -4.628906 2.25 -4.453125 C 2.5 -4.285156 2.847656 -4.117188 3.296875 -3.953125 C 3.640625 -3.828125 3.929688 -3.6875 4.171875 -3.53125 C 4.421875 -3.375 4.625 -3.160156 4.78125 -2.890625 C 4.9375 -2.628906 5.015625 -2.296875 5.015625 -1.890625 C 5.015625 -1.523438 4.921875 -1.191406 4.734375 -0.890625 C 4.554688 -0.597656 4.289062 -0.363281 3.9375 -0.1875 C 3.59375 -0.0078125 3.1875 0.078125 2.71875 0.078125 C 2.300781 0.078125 1.890625 0.015625 1.484375 -0.109375 C 1.078125 -0.242188 0.710938 -0.425781 0.390625 -0.65625 L 0.890625 -1.515625 C 1.128906 -1.335938 1.40625 -1.191406 1.71875 -1.078125 C 2.039062 -0.960938 2.335938 -0.90625 2.609375 -0.90625 C 2.941406 -0.90625 3.234375 -0.984375 3.484375 -1.140625 C 3.742188 -1.304688 3.875 -1.554688 3.875 -1.890625 C 3.875 -2.148438 3.765625 -2.367188 3.546875 -2.546875 C 3.335938 -2.722656 3.046875 -2.882812 2.671875 -3.03125 C 2.273438 -3.175781 1.945312 -3.320312 1.6875 -3.46875 C 1.425781 -3.613281 1.203125 -3.8125 1.015625 -4.0625 C 0.828125 -4.320312 0.734375 -4.644531 0.734375 -5.03125 C 0.734375 -5.59375 0.925781 -6.046875 1.3125 -6.390625 C 1.695312 -6.734375 2.203125 -6.914062 2.828125 -6.9375 C 3.285156 -6.9375 3.6875 -6.882812 4.03125 -6.78125 C 4.375 -6.675781 4.691406 -6.53125 4.984375 -6.34375 Z M 4.578125 -5.5 "/></g></g></g><g fill="#edead6" fill-opacity="1"><g transform="translate(281.877143, 314.776827)"><g><path d="M 4.578125 -5.5 C 3.984375 -5.8125 3.453125 -5.96875 2.984375 -5.96875 C 2.640625 -5.96875 2.367188 -5.890625 2.171875 -5.734375 C 1.972656 -5.585938 1.875 -5.378906 1.875 -5.109375 C 1.875 -4.847656 2 -4.628906 2.25 -4.453125 C 2.5 -4.285156 2.847656 -4.117188 3.296875 -3.953125 C 3.640625 -3.828125 3.929688 -3.6875 4.171875 -3.53125 C 4.421875 -3.375 4.625 -3.160156 4.78125 -2.890625 C 4.9375 -2.628906 5.015625 -2.296875 5.015625 -1.890625 C 5.015625 -1.523438 4.921875 -1.191406 4.734375 -0.890625 C 4.554688 -0.597656 4.289062 -0.363281 3.9375 -0.1875 C 3.59375 -0.0078125 3.1875 0.078125 2.71875 0.078125 C 2.300781 0.078125 1.890625 0.015625 1.484375 -0.109375 C 1.078125 -0.242188 0.710938 -0.425781 0.390625 -0.65625 L 0.890625 -1.515625 C 1.128906 -1.335938 1.40625 -1.191406 1.71875 -1.078125 C 2.039062 -0.960938 2.335938 -0.90625 2.609375 -0.90625 C 2.941406 -0.90625 3.234375 -0.984375 3.484375 -1.140625 C 3.742188 -1.304688 3.875 -1.554688 3.875 -1.890625 C 3.875 -2.148438 3.765625 -2.367188 3.546875 -2.546875 C 3.335938 -2.722656 3.046875 -2.882812 2.671875 -3.03125 C 2.273438 -3.175781 1.945312 -3.320312 1.6875 -3.46875 C 1.425781 -3.613281 1.203125 -3.8125 1.015625 -4.0625 C 0.828125 -4.320312 0.734375 -4.644531 0.734375 -5.03125 C 0.734375 -5.59375 0.925781 -6.046875 1.3125 -6.390625 C 1.695312 -6.734375 2.203125 -6.914062 2.828125 -6.9375 C 3.285156 -6.9375 3.6875 -6.882812 4.03125 -6.78125 C 4.375 -6.675781 4.691406 -6.53125 4.984375 -6.34375 Z M 4.578125 -5.5 "/></g></g></g><g fill="#edead6" fill-opacity="1"><g transform="translate(291.944444, 314.776827)"><g><path d="M 5.53125 -6.90625 L 5.53125 -5.84375 L 2.0625 -5.84375 L 2.0625 -4 L 5.15625 -4 L 5.15625 -2.9375 L 2.0625 -2.9375 L 2.0625 -1.0625 L 5.65625 -1.0625 L 5.65625 0 L 0.953125 0 L 0.953125 -6.90625 Z M 5.53125 -6.90625 "/></g></g></g><g fill="#edead6" fill-opacity="1"><g transform="translate(302.732204, 314.776827)"><g><path d="M 0.953125 -6.90625 L 2.90625 -6.90625 C 3.78125 -6.90625 4.5 -6.734375 5.0625 -6.390625 C 5.625 -6.046875 6.035156 -5.601562 6.296875 -5.0625 C 6.554688 -4.53125 6.6875 -3.960938 6.6875 -3.359375 C 6.6875 -2.691406 6.53125 -2.101562 6.21875 -1.59375 C 5.90625 -1.082031 5.484375 -0.6875 4.953125 -0.40625 C 4.429688 -0.132812 3.863281 0 3.25 0 L 0.953125 0 Z M 3.046875 -1.0625 C 3.535156 -1.0625 3.96875 -1.148438 4.34375 -1.328125 C 4.71875 -1.515625 5.007812 -1.785156 5.21875 -2.140625 C 5.4375 -2.503906 5.546875 -2.9375 5.546875 -3.4375 C 5.546875 -3.976562 5.429688 -4.429688 5.203125 -4.796875 C 4.972656 -5.160156 4.675781 -5.425781 4.3125 -5.59375 C 3.957031 -5.769531 3.59375 -5.859375 3.21875 -5.859375 L 2.0625 -5.859375 L 2.0625 -1.0625 Z M 3.046875 -1.0625 "/></g></g></g><g fill="#edead6" fill-opacity="1"><g transform="translate(158.548662, 167.520404)"><g><path d="M 38.785156 -51.214844 C 40.191406 -49.472656 40.441406 -46.90625 40.441406 -44.5 C 40.441406 -43.839844 40.523438 -9.53125 40.523438 -8.867188 C 40.523438 -4.476562 37.707031 -4.226562 37.707031 -4.226562 C 36.132812 -4.226562 33.3125 -5.964844 29.75 -8.203125 L 29.75 -10.277344 L 32.484375 -13.011719 L 29.75 -15.746094 C 29.75 -15.746094 29.75 -29.667969 29.75 -29.75 C 29.75 -46.65625 31.65625 -53.453125 32.152344 -55.441406 C 32.320312 -56.269531 34.972656 -65.71875 43.339844 -63.3125 C 43.339844 -63.3125 42.761719 -66.378906 38.785156 -65.882812 C 34.226562 -65.300781 31.988281 -59.253906 31.160156 -54.945312 C 30.414062 -51.464844 29.75 -46.988281 29.417969 -41.683594 C 29.085938 -37.375 28.921875 -33.3125 28.921875 -30.332031 C 28.921875 -29.917969 28.921875 -15.746094 28.921875 -15.746094 L 26.1875 -13.011719 L 28.921875 -10.277344 L 28.921875 -8.703125 C 26.683594 -10.109375 24.28125 -11.601562 21.628906 -12.929688 C 23.617188 -15.332031 26.105469 -17.984375 27.679688 -18.480469 L 27.679688 -51.878906 C 27.679688 -53.785156 28.34375 -55.691406 29.503906 -57.265625 C 24.03125 -56.601562 16.410156 -62.734375 11.1875 -62.070312 C 10.773438 -62.070312 10.523438 -61.738281 10.441406 -61.242188 C 8.203125 -52.539062 0.910156 -49.472656 0 -48.976562 C 0 -48.976562 7.210938 -47.898438 7.210938 -36.214844 C 7.210938 -34.058594 6.214844 -30.910156 3.976562 -30.164062 C 3.894531 -30.164062 3.894531 -30.082031 3.976562 -30.082031 C 8.039062 -30.082031 9.199219 -36.960938 15.664062 -41.1875 C 16.242188 -41.601562 16.324219 -42.347656 16.242188 -43.09375 C 15.910156 -45.828125 13.839844 -52.625 6.960938 -52.625 C 6.960938 -52.625 6.960938 -52.625 6.960938 -52.707031 C 11.601562 -53.367188 16.738281 -50.21875 21.378906 -48.480469 L 18.644531 -46.160156 C 18.644531 -46.160156 18.644531 -17.070312 18.644531 -14.335938 C 18.644531 -7.957031 12.097656 -4.390625 12.097656 -4.390625 C 15.828125 -5.136719 25.441406 1.160156 28.921875 4.558594 L 28.921875 13.757812 C 28.921875 14.75 28.09375 15.578125 27.097656 15.578125 C 27.097656 15.578125 28.757812 17.320312 29.335938 21.214844 C 29.832031 17.320312 31.574219 15.578125 31.574219 15.578125 C 30.496094 15.578125 29.75 14.75 29.75 13.757812 L 29.75 5.386719 C 30.578125 6.296875 31.160156 7.125 31.492188 7.789062 C 31.65625 8.203125 32.320312 8.121094 32.402344 7.707031 C 36.214844 -6.132812 50.882812 -9.695312 50.882812 -9.695312 C 50.054688 -10.441406 49.558594 -11.519531 49.558594 -12.597656 L 49.558594 -48.8125 C 49.558594 -53.203125 49.640625 -59.832031 53.617188 -61.074219 C 45.828125 -61.074219 44.417969 -53.867188 38.785156 -51.214844 Z M 38.785156 -51.214844 "/></g></g></g></svg>