<svg xmlns="http://www.w3.org/2000/svg" xmlns:xlink="http://www.w3.org/1999/xlink" width="500" zoomAndPan="magnify" viewBox="0 0 375 374.999991" height="500" preserveAspectRatio="xMidYMid meet" version="1.0"><defs><g/><clipPath id="7996214c3b"><path d="M 54.410156 37.5 L 320.660156 37.5 L 320.660156 337.5 L 54.410156 337.5 Z M 54.410156 37.5 " clip-rule="nonzero"/></clipPath></defs><rect x="-37.5" width="450" fill="#ffffff" y="-37.499999" height="449.999989" fill-opacity="1"/><rect x="-37.5" width="450" fill="#ffffff" y="-37.499999" height="449.999989" fill-opacity="1"/><g clip-path="url(#7996214c3b)"><path fill="#edead6" d="M 158.726562 57.585938 C 158.746094 57.574219 158.773438 57.574219 158.792969 57.566406 L 158.792969 37.878906 L 165.351562 37.878906 L 165.351562 56.292969 C 171.515625 55.253906 177.828125 54.636719 184.246094 54.476562 L 184.246094 37.878906 L 190.804688 37.878906 L 190.804688 54.476562 C 197.230469 54.636719 203.535156 55.253906 209.699219 56.292969 L 209.699219 37.878906 L 216.257812 37.878906 L 216.257812 99.261719 L 209.699219 99.261719 L 209.699219 62.933594 C 203.542969 61.835938 197.230469 61.191406 190.804688 61.03125 L 190.804688 73.582031 L 184.246094 73.582031 L 184.246094 61.03125 C 177.820312 61.199219 171.503906 61.847656 165.351562 62.933594 L 165.351562 99.253906 L 158.792969 99.253906 L 158.792969 64.28125 C 158.773438 64.292969 158.746094 64.292969 158.726562 64.300781 Z M 147.363281 307.496094 C 97.203125 290.675781 60.96875 243.246094 60.96875 187.519531 C 60.96875 131.78125 97.203125 84.351562 147.363281 67.53125 L 147.363281 60.636719 C 93.53125 77.710938 54.410156 128.128906 54.410156 187.519531 C 54.410156 246.90625 93.53125 297.324219 147.363281 314.398438 Z M 216.257812 310.746094 L 216.257812 275.765625 L 209.699219 275.765625 L 209.699219 312.085938 C 203.542969 313.179688 197.230469 313.828125 190.804688 313.988281 L 190.804688 301.4375 L 184.246094 301.4375 L 184.246094 313.988281 C 177.820312 313.816406 171.503906 313.171875 165.351562 312.085938 L 165.351562 275.765625 L 158.792969 275.765625 L 158.792969 310.746094 C 158.773438 310.738281 158.746094 310.738281 158.726562 310.726562 L 158.726562 317.441406 C 158.746094 317.453125 158.773438 317.453125 158.792969 317.460938 L 158.792969 337.148438 L 165.351562 337.148438 L 165.351562 318.734375 C 171.515625 319.773438 177.828125 320.394531 184.246094 320.550781 L 184.246094 337.148438 L 190.804688 337.148438 L 190.804688 320.550781 C 197.222656 320.394531 203.535156 319.773438 209.699219 318.734375 L 209.699219 337.148438 L 216.257812 337.148438 Z M 227.628906 60.621094 L 227.628906 67.511719 C 277.816406 84.316406 314.082031 131.761719 314.082031 187.519531 C 314.082031 243.273438 277.816406 290.722656 227.628906 307.523438 L 227.628906 314.417969 C 281.488281 297.371094 320.640625 246.9375 320.640625 187.519531 C 320.640625 128.101562 281.488281 77.664062 227.628906 60.621094 Z M 227.628906 60.621094 " fill-opacity="1" fill-rule="nonzero"/></g><g fill="#edead6" fill-opacity="1"><g transform="translate(143.158032, 220.42392)"><g><path d="M 64.136719 -84.691406 C 66.464844 -81.816406 66.878906 -77.566406 66.878906 -73.59375 C 66.878906 -72.496094 67.015625 -15.761719 67.015625 -14.664062 C 67.015625 -7.398438 62.355469 -6.988281 62.355469 -6.988281 C 59.75 -6.988281 55.089844 -9.867188 49.199219 -13.566406 L 49.199219 -16.992188 L 53.722656 -21.515625 L 49.199219 -26.039062 C 49.199219 -26.039062 49.199219 -49.0625 49.199219 -49.199219 C 49.199219 -77.15625 52.351562 -88.394531 53.171875 -91.683594 C 53.445312 -93.054688 57.832031 -108.675781 71.675781 -104.703125 C 71.675781 -104.703125 70.714844 -109.773438 64.136719 -108.949219 C 56.597656 -107.992188 52.898438 -97.988281 51.527344 -90.859375 C 50.296875 -85.105469 49.199219 -77.703125 48.652344 -68.933594 C 48.101562 -61.808594 47.828125 -55.089844 47.828125 -50.15625 C 47.828125 -49.472656 47.828125 -26.039062 47.828125 -26.039062 L 43.304688 -21.515625 L 47.828125 -16.992188 L 47.828125 -14.390625 C 44.128906 -16.71875 40.152344 -19.1875 35.769531 -21.378906 C 39.058594 -25.351562 43.167969 -29.738281 45.773438 -30.5625 L 45.773438 -85.789062 C 45.773438 -88.941406 46.867188 -92.09375 48.789062 -94.699219 C 39.742188 -93.601562 27.132812 -103.742188 18.5 -102.644531 C 17.816406 -102.644531 17.40625 -102.097656 17.265625 -101.277344 C 13.566406 -86.886719 1.507812 -81.816406 0 -80.992188 C 0 -80.992188 11.921875 -79.210938 11.921875 -59.886719 C 11.921875 -56.324219 10.277344 -51.117188 6.578125 -49.882812 C 6.441406 -49.882812 6.441406 -49.746094 6.578125 -49.746094 C 13.292969 -49.746094 15.210938 -61.121094 25.902344 -68.109375 C 26.859375 -68.796875 26.996094 -70.03125 26.859375 -71.261719 C 26.3125 -75.785156 22.886719 -87.023438 11.511719 -87.023438 C 11.511719 -87.023438 11.511719 -87.023438 11.511719 -87.160156 C 19.1875 -88.257812 27.683594 -83.046875 35.355469 -80.171875 L 30.835938 -76.332031 C 30.835938 -76.332031 30.835938 -28.230469 30.835938 -23.707031 C 30.835938 -13.15625 20.007812 -7.261719 20.007812 -7.261719 C 26.175781 -8.496094 42.074219 1.917969 47.828125 7.539062 L 47.828125 22.75 C 47.828125 24.394531 46.457031 25.765625 44.8125 25.765625 C 44.8125 25.765625 47.554688 28.640625 48.511719 35.082031 C 49.335938 28.640625 52.214844 25.765625 52.214844 25.765625 C 50.433594 25.765625 49.199219 24.394531 49.199219 22.75 L 49.199219 8.90625 C 50.570312 10.414062 51.527344 11.785156 52.078125 12.882812 C 52.351562 13.566406 53.445312 13.429688 53.585938 12.746094 C 59.886719 -10.140625 84.144531 -16.035156 84.144531 -16.035156 C 82.773438 -17.265625 81.953125 -19.050781 81.953125 -20.832031 L 81.953125 -80.71875 C 81.953125 -87.980469 82.089844 -98.945312 88.667969 -101 C 75.785156 -101 73.457031 -89.078125 64.136719 -84.691406 Z M 64.136719 -84.691406 "/></g></g></g></svg>